<svg xmlns="http://www.w3.org/2000/svg" xmlns:xlink="http://www.w3.org/1999/xlink" preserveAspectRatio="xMidYMid" width="33" height="29" viewBox="0 0 33 29">
  <defs>
    <style>

      .cls-2 {
        fill: #262f32;
        opacity: 0.9;
      }
    </style>
  </defs>
  <path d="M-0.000,29.000 C-0.000,29.000 -0.000,26.000 -0.000,26.000 C-0.000,26.000 33.000,26.000 33.000,26.000 C33.000,26.000 33.000,29.000 33.000,29.000 C33.000,29.000 -0.000,29.000 -0.000,29.000 ZM-0.000,13.000 C-0.000,13.000 33.000,13.000 33.000,13.000 C33.000,13.000 33.000,16.000 33.000,16.000 C33.000,16.000 -0.000,16.000 -0.000,16.000 C-0.000,16.000 -0.000,13.000 -0.000,13.000 ZM-0.000,-0.000 C-0.000,-0.000 33.000,-0.000 33.000,-0.000 C33.000,-0.000 33.000,3.000 33.000,3.000 C33.000,3.000 -0.000,3.000 -0.000,3.000 C-0.000,3.000 -0.000,-0.000 -0.000,-0.000 Z" id="path-1" class="cls-2" fill-rule="evenodd"/>
</svg>
